UNKNOWN
nRows=4
nColumns=264

# SIMM Motion File Header:
name UNKNOWN
datacolumns 264
datarows 4
otherdata 1
range 0.65833000 0.68333000
endheader
time	pelvis_tx	pelvis_ty	pelvis_tz	pelvis_list	pelvis_rotation	pelvis_tilt	hip_flexion_r	hip_adduction_r	hip_rotation_r	knee_angle_r	ankle_angle_r	subtalar_angle_r	mtp_angle_r	hip_flexion_l	hip_adduction_l	hip_rotation_l	knee_angle_l	ankle_angle_l	subtalar_angle_l	mtp_angle_l	lumbar_extension	lumbar_bending	lumbar_rotation	midhip_tx	midhip_ty	midhip_tz	hip_r_tx	hip_r_ty	hip_r_tz	hip_l_tx	hip_l_ty	hip_l_tz	knee_r_tx	knee_r_ty	knee_r_tz	knee_l_tx	knee_l_ty	knee_l_tz	ankle_r_tx	ankle_r_ty	ankle_r_tz	ankle_l_tx	ankle_l_ty	ankle_l_tz	midasis_tx	midasis_ty	midasis_tz	asis_r_tx	asis_r_ty	asis_r_tz	asis_l_tx	asis_l_ty	asis_l_tz	psis_r_tx	psis_r_ty	psis_r_tz	psis_l_tx	psis_l_ty	psis_l_tz	epicondLat_r_tx	epicondLat_r_ty	epicondLat_r_tz	epicondLat_l_tx	epicondLat_l_ty	epicondLat_l_tz	epicondMed_r_tx	epicondMed_r_ty	epicondMed_r_tz	epicondMed_l_tx	epicondMed_l_ty	epicondMed_l_tz	malleolusLat_r_tx	malleolusLat_r_ty	malleolusLat_r_tz	malleolusLat_l_tx	malleolusLat_l_ty	malleolusLat_l_tz	malleolusMedv_r_tx	malleolusMedv_r_ty	malleolusMedv_r_tz	malleolusMedv_l_tx	malleolusMedv_l_ty	malleolusMedv_l_tz	neck_tx	neck_ty	neck_tz	subclavicle_r_tx	subclavicle_r_ty	subclavicle_r_tz	subclavicle_l_tx	subclavicle_l_ty	subclavicle_l_tz	sternalnotch_tx	sternalnotch_ty	sternalnotch_tz	xyphoidprocess_tx	xyphoidprocess_ty	xyphoidprocess_tz	thighwand_r_tx	thighwand_r_ty	thighwand_r_tz	thighwand_l_tx	thighwand_l_ty	thighwand_l_tz	upperleg1_r_tx	upperleg1_r_ty	upperleg1_r_tz	upperleg1_l_tx	upperleg1_l_ty	upperleg1_l_tz	upperleg2_r_tx	upperleg2_r_ty	upperleg2_r_tz	upperleg2_l_tx	upperleg2_l_ty	upperleg2_l_tz	shankwand_r_tx	shankwand_r_ty	shankwand_r_tz	shankwand_l_tx	shankwand_l_ty	shankwand_l_tz	lowerleg1_r_tx	lowerleg1_r_ty	lowerleg1_r_tz	lowerleg1_l_tx	lowerleg1_l_ty	lowerleg1_l_tz	toe_r_tx	toe_r_ty	toe_r_tz	toe_l_tx	toe_l_ty	toe_l_tz	ground_force_vx	ground_force_vy	ground_force_vz	ground_force_px	ground_force_py	ground_force_pz	ground_force_vx	ground_force_vy	ground_force_vz	ground_force_px	ground_force_py	ground_force_pz	ground_torque_x	ground_torque_y	ground_torque_z	ground_torque_x	ground_torque_y	ground_torque_z	ground_marker_px	ground_marker_py	ground_marker_pz	ground_marker_px	ground_marker_py	ground_marker_pz	ground_marker_px	ground_marker_py	ground_marker_pz	ground_marker_px	ground_marker_py	ground_marker_pz	ground_marker_px	ground_marker_py	ground_marker_pz	ground_marker_px	ground_marker_py	ground_marker_pz	ground_marker_px	ground_marker_py	ground_marker_pz	ground_marker_px	ground_marker_py	ground_marker_pz	ground_marker_px	ground_marker_py	ground_marker_pz	ground_marker_px	ground_marker_py	ground_marker_pz	ground_marker_px	ground_marker_py	ground_marker_pz	ground_marker_px	ground_marker_py	ground_marker_pz	ground_marker_px	ground_marker_py	ground_marker_pz	ground_marker_px	ground_marker_py	ground_marker_pz	ground_marker_px	ground_marker_py	ground_marker_pz	ground_marker_px	ground_marker_py	ground_marker_pz	ground_marker_px	ground_marker_py	ground_marker_pz	ground_marker_px	ground_marker_py	ground_marker_pz	ground_marker_px	ground_marker_py	ground_marker_pz	ground_marker_px	ground_marker_py	ground_marker_pz	ground_marker_px	ground_marker_py	ground_marker_pz	ground_marker_px	ground_marker_py	ground_marker_pz	ground_marker_px	ground_marker_py	ground_marker_pz	ground_marker_px	ground_marker_py	ground_marker_pz	ground_marker_px	ground_marker_py	ground_marker_pz	ground_marker_px	ground_marker_py	ground_marker_pz	ground_marker_px	ground_marker_py	ground_marker_pz	ground_marker_px	ground_marker_py	ground_marker_pz	ground_marker_px	ground_marker_py	ground_marker_pz	ground_marker_px	ground_marker_py	ground_marker_pz	ground_marker_px	ground_marker_py	ground_marker_pz	ground_marker_px	ground_marker_py	ground_marker_pz	ground_marker_px	ground_marker_py	ground_marker_pz	ground_marker_px	ground_marker_py	ground_marker_pz	ground_marker_px	ground_marker_py	ground_marker_pz	ground_marker_px	ground_marker_py	ground_marker_pz	ground_marker_px	ground_marker_py	ground_marker_pz	
      0.65833000	      0.52461469	      0.90132416	     -0.26511738	      4.24786974	     -1.08563112	     -1.11339412	    -10.11236815	     -1.01854253	     10.16554856	    -32.10201032	      2.13394333	      0.00009594	      0.00000000	     20.36101533	      7.13340734	     10.52709243	    -12.75934518	     -3.45705153	      0.00007835	      0.00000000	     -3.49492522	     -2.57272241	      3.70887219	      0.47530200	      0.86734800	     -0.26286900	      0.46209200	      0.86352300	     -0.17388200	      0.48851200	      0.87117200	     -0.35185600	      0.40135800	      0.44198500	     -0.19749700	      0.59597900	      0.46260700	     -0.31812700	      0.11658600	      0.14057400	     -0.21499600	      0.64280600	      0.07098000	     -0.30231100	      0.54364900	      0.93988800	     -0.25920300	      0.54013000	      0.92628200	     -0.13977300	      0.54716800	      0.95349500	     -0.37863400	      0.35702800	      0.98072400	     -0.22750600	      0.36366100	      0.98396600	     -0.31301800	      0.38959400	      0.44332800	     -0.13713900	      0.60908200	      0.46482400	     -0.37665400	      0.38358000	      0.44012700	     -0.24732100	      0.57730300	      0.44694600	     -0.26690500	      0.10373700	      0.14926500	     -0.17812600	      0.62800700	      0.06771000	     -0.33824500	      0.13141600	      0.14793400	     -0.24254400	      0.64798700	      0.08542200	     -0.27736400	      0.35911100	      1.40831600	     -0.24733600	      0.49390400	      1.32961500	     -0.20727800	      0.48556400	      1.33192000	     -0.31398400	      0.47272700	      1.33873500	     -0.25631700	      0.55070800	      1.17418800	     -0.27763900	      0.45569800	      0.53379600	     -0.05950100	      0.71131600	      0.59090500	     -0.31038900	      0.47941000	      0.59846500	     -0.12240900	      0.63396400	      0.61845700	     -0.36096300	      0.46726200	      0.51274400	     -0.14697200	      0.63739900	      0.53064700	     -0.35520600	      0.19997800	      0.24098000	     -0.08482800	      0.64308200	      0.20504400	     -0.42586400	      0.17521400	      0.22051500	     -0.16055600	      0.62731800	      0.16814800	     -0.35608800	      0.18321300	      0.04073500	     -0.19906000	      0.76651400	      0.04068100	     -0.32326000	     69.59153839	    204.80869077	     -2.29781498	      0.18347717	      0.00000000	     -0.21111751	    -62.84740918	    406.94226272	      9.65227730	      0.65863525	      0.00000000	     -0.29791257	      0.00000000	      0.46738135	      0.00000000	      0.00000000	      1.09177734	      0.00000000	      0.47530234	      0.86734766	     -0.26286906	      0.46209222	      0.86352313	     -0.17388204	      0.48851246	      0.87117219	     -0.35185608	      0.40135825	      0.44198495	     -0.19749667	      0.59597915	      0.46260735	     -0.31812733	      0.11658608	      0.14057435	     -0.21499579	      0.64280599	      0.07098009	     -0.30231097	      0.54364908	      0.93988812	     -0.25920343	      0.54013038	      0.92628175	     -0.13977325	      0.54716772	      0.95349455	     -0.37863365	      0.35702804	      0.98072422	     -0.22750646	      0.36366147	      0.98396581	     -0.31301787	      0.38959429	      0.44332826	     -0.13713859	      0.60908228	      0.46482426	     -0.37665397	      0.38358048	      0.44012657	     -0.24732074	      0.57730275	      0.44694555	     -0.26690462	      0.10373704	      0.14926481	     -0.17812605	      0.62800664	      0.06770980	     -0.33824542	      0.13141575	      0.14793369	     -0.24254404	      0.64798659	      0.08542226	     -0.27736399	      0.35911149	      1.40831578	     -0.24733609	      0.49390370	      1.32961476	     -0.20727833	      0.48556364	      1.33191991	     -0.31398371	      0.47272739	      1.33873475	     -0.25631711	      0.55070794	      1.17418790	     -0.27763948	      0.45569822	      0.53379583	     -0.05950137	      0.71131581	      0.59090459	     -0.31038854	      0.47941032	      0.59846473	     -0.12240938	      0.63396388	      0.61845714	     -0.36096343	      0.46726245	      0.51274371	     -0.14697200	      0.63739890	      0.53064662	     -0.35520586	      0.19997844	      0.24098015	     -0.08482847	      0.64308220	      0.20504437	     -0.42586443	      0.17521432	      0.22051515	     -0.16055579	      0.62731773	      0.16814750	     -0.35608810	      0.18321325	      0.04073534	     -0.19905967	      0.76651418	      0.04068092	     -0.32325950
      0.66667000	      0.53478832	      0.90295815	     -0.26593790	      4.42314633	     -0.86398660	     -1.12627857	     -9.14656124	     -1.28464233	      9.32057380	    -34.28489767	     -1.47459079	      0.00011842	      0.00000000	     19.77539553	      7.42286557	     10.50928018	    -12.96764323	     -2.76333888	      0.00007755	      0.00000000	     -3.35564218	     -2.86019025	      3.45054767	      0.48444500	      0.86908200	     -0.26449200	      0.47081200	      0.86500500	     -0.17558000	      0.49807800	      0.87315900	     -0.35340400	      0.41793700	      0.44116100	     -0.19658700	      0.60060200	      0.46387800	     -0.31935200	      0.12824400	      0.14563100	     -0.21339500	      0.64335100	      0.07075700	     -0.30269900	      0.55403200	      0.94163700	     -0.26055500	      0.55062100	      0.92764300	     -0.14129400	      0.55744300	      0.95563000	     -0.37981700	      0.36783200	      0.98218500	     -0.22795300	      0.37418800	      0.98579600	     -0.31342800	      0.40576000	      0.44350000	     -0.13591100	      0.61515900	      0.46516400	     -0.37776300	      0.40134300	      0.43783400	     -0.24510500	      0.58182700	      0.44918700	     -0.26704600	      0.11481200	      0.15530900	     -0.17698200	      0.62852400	      0.06763700	     -0.33863500	      0.14339100	      0.15229900	     -0.24085400	      0.64896500	      0.08555200	     -0.27778500	      0.36845600	      1.40970500	     -0.24830100	      0.50289000	      1.33164100	     -0.20818500	      0.49523900	      1.33378100	     -0.31542500	      0.48206300	      1.34057400	     -0.25739900	      0.56063200	      1.17629600	     -0.27817500	      0.46966800	      0.53480500	     -0.05817300	      0.71912100	      0.59014300	     -0.31179300	      0.49373900	      0.59933500	     -0.12177600	      0.64267900	      0.61880400	     -0.36207100	      0.48269700	      0.51317900	     -0.14477800	      0.64383400	      0.53079600	     -0.35590100	      0.21080700	      0.24684000	     -0.08346900	      0.64554500	      0.20468100	     -0.42613900	      0.18667400	      0.22580600	     -0.15872300	      0.62930600	      0.16818900	     -0.35660100	      0.18619800	      0.04059000	     -0.19911600	      0.76691900	      0.04039600	     -0.32382500	     46.10048977	    135.29243365	     -3.12274618	      0.18539362	      0.00000000	     -0.21066859	    -66.07499699	    443.40525223	     13.99716810	      0.66040741	      0.00000000	     -0.29876096	      0.00000000	      0.28017413	      0.00000000	      0.00000000	      1.20682776	      0.00000000	      0.48444545	      0.86908168	     -0.26449183	      0.47081250	      0.86500478	     -0.17557983	      0.49807844	      0.87315857	     -0.35340384	      0.41793665	      0.44116095	     -0.19658655	      0.60060227	      0.46387845	     -0.31935161	      0.12824413	      0.14563069	     -0.21339537	      0.64335096	      0.07075726	     -0.30269882	      0.55403185	      0.94163656	     -0.26055533	      0.55062091	      0.92764342	     -0.14129362	      0.55744284	      0.95562965	     -0.37981707	      0.36783180	      0.98218518	     -0.22795326	      0.37418786	      0.98579586	     -0.31342757	      0.40575993	      0.44349986	     -0.13591054	      0.61515868	      0.46516442	     -0.37776345	      0.40134290	      0.43783411	     -0.24510489	      0.58182681	      0.44918686	     -0.26704562	      0.11481238	      0.15530878	     -0.17698215	      0.62852418	      0.06763650	     -0.33863527	      0.14339130	      0.15229934	     -0.24085414	      0.64896488	      0.08555167	     -0.27778548	      0.36845595	      1.40970504	     -0.24830122	      0.50288969	      1.33164096	     -0.20818484	      0.49523872	      1.33378148	     -0.31542531	      0.48206306	      1.34057403	     -0.25739890	      0.56063187	      1.17629588	     -0.27817491	      0.46966803	      0.53480548	     -0.05817312	      0.71912092	      0.59014344	     -0.31179306	      0.49373853	      0.59933543	     -0.12177603	      0.64267933	      0.61880398	     -0.36207053	      0.48269695	      0.51317894	     -0.14477803	      0.64383405	      0.53079593	     -0.35590065	      0.21080668	      0.24683952	     -0.08346916	      0.64554507	      0.20468096	     -0.42613876	      0.18667395	      0.22580589	     -0.15872283	      0.62930644	      0.16818859	     -0.35660085	      0.18619780	      0.04059046	     -0.19911610	      0.76691884	      0.04039583	     -0.32382545
      0.67500000	      0.54511306	      0.90437576	     -0.26674747	      4.66257058	     -0.71875434	     -1.15676839	     -8.02157021	     -1.71385295	      8.39454281	    -36.56518047	     -5.39345926	      0.00014482	      0.00000000	     19.15213494	      7.74639683	     10.33197214	    -13.06719419	     -1.99323561	      0.00007780	      0.00000000	     -3.12129877	     -3.18361526	      3.20106525	      0.49438800	      0.87066900	     -0.26590600	      0.48071600	      0.86627900	     -0.17701500	      0.50805900	      0.87505900	     -0.35479800	      0.43604000	      0.44007100	     -0.19584400	      0.60610400	      0.46480000	     -0.32054800	      0.14095800	      0.15035000	     -0.21166200	      0.64386200	      0.07054300	     -0.30301300	      0.56426700	      0.94329600	     -0.26186900	      0.56084200	      0.92898500	     -0.14278000	      0.56769100	      0.95760700	     -0.38095700	      0.37836200	      0.98355100	     -0.22849400	      0.38457000	      0.98761800	     -0.31398700	      0.42254400	      0.44363200	     -0.13461700	      0.62066100	      0.46539000	     -0.37893400	      0.42038100	      0.43577700	     -0.24313500	      0.58760500	      0.45054400	     -0.26815900	      0.12701700	      0.16099100	     -0.17571100	      0.62904400	      0.06754800	     -0.33896400	      0.15706700	      0.15587000	     -0.23888900	      0.64983900	      0.08547200	     -0.27791700	      0.37780100	      1.41091300	     -0.24926500	      0.51120600	      1.33334500	     -0.20939700	      0.50454600	      1.33547800	     -0.31590700	      0.49141900	      1.34237500	     -0.25842700	      0.56970000	      1.17804400	     -0.27849900	      0.48376600	      0.53581000	     -0.05673700	      0.72656900	      0.58891300	     -0.31353000	      0.50821100	      0.60000000	     -0.12032700	      0.65107600	      0.61893900	     -0.36366200	      0.49906000	      0.51374600	     -0.14250400	      0.65063900	      0.53091100	     -0.35741400	      0.22271900	      0.25232700	     -0.08197000	      0.64793300	      0.20431100	     -0.42642900	      0.19889200	      0.23095100	     -0.15714000	      0.63117600	      0.16807600	     -0.35683800	      0.18947700	      0.04067300	     -0.19921600	      0.76730100	      0.04025000	     -0.32428100	     23.25837210	     82.23867310	     -3.52051305	      0.19131984	      0.00000000	     -0.21042287	    -68.86970642	    480.58751259	     17.66980634	      0.66172296	      0.00000000	     -0.29938388	      0.00000000	      0.20385962	      0.00000000	      0.00000000	      1.29988892	      0.00000000	      0.49438751	      0.87066877	     -0.26590627	      0.48071638	      0.86627895	     -0.17701502	      0.50805861	      0.87505853	     -0.35479751	      0.43603989	      0.44007117	     -0.19584401	      0.60610420	      0.46479967	     -0.32054818	      0.14095806	      0.15035045	     -0.21166161	      0.64386153	      0.07054338	     -0.30301276	      0.56426680	      0.94329590	     -0.26186866	      0.56084245	      0.92898500	     -0.14277980	      0.56769109	      0.95760679	     -0.38095748	      0.37836155	      0.98355114	     -0.22849391	      0.38456953	      0.98761791	     -0.31398693	      0.42254415	      0.44363156	     -0.13461711	      0.62066138	      0.46539000	     -0.37893420	      0.42038116	      0.43577737	     -0.24313536	      0.58760470	      0.45054448	     -0.26815942	      0.12701707	      0.16099112	     -0.17571130	      0.62904412	      0.06754793	     -0.33896375	      0.15706740	      0.15586993	     -0.23888879	      0.64983922	      0.08547205	     -0.27791747	      0.37780133	      1.41091251	     -0.24926499	      0.51120603	      1.33334529	     -0.20939654	      0.50454640	      1.33547831	     -0.31590697	      0.49141943	      1.34237468	     -0.25842690	      0.56970036	      1.17804384	     -0.27849886	      0.48376566	      0.53581011	     -0.05673679	      0.72656906	      0.58891296	     -0.31352973	      0.50821084	      0.59999967	     -0.12032679	      0.65107554	      0.61893892	     -0.36366186	      0.49905980	      0.51374602	     -0.14250377	      0.65063918	      0.53091139	     -0.35741392	      0.22271873	      0.25232673	     -0.08197013	      0.64793289	      0.20431109	     -0.42642939	      0.19889177	      0.23095147	     -0.15714030	      0.63117617	      0.16807628	     -0.35683766	      0.18947688	      0.04067326	     -0.19921571	      0.76730067	      0.04024984	     -0.32428148
      0.68333000	      0.55541033	      0.90566583	     -0.26772693	      4.94397890	     -0.59701460	     -1.18543025	     -6.82398198	     -2.25982340	      7.46866804	    -38.84380225	     -9.56302485	      0.00017264	      0.00000000	     18.47961470	      8.11738527	     10.12081796	    -13.06913349	     -1.21668544	      0.00007831	      0.00000000	     -2.92056971	     -3.55607483	      3.09808443	      0.50463200	      0.87227500	     -0.26775000	      0.49074900	      0.86767400	     -0.17890200	      0.51851400	      0.87687700	     -0.35659800	      0.45452600	      0.43883600	     -0.19505600	      0.61099800	      0.46543000	     -0.32158000	      0.15449300	      0.15481600	     -0.20978700	      0.64424200	      0.07034700	     -0.30321100	      0.57442400	      0.94482500	     -0.26313100	      0.57092000	      0.93024200	     -0.14423800	      0.57792700	      0.95940900	     -0.38202500	      0.38860400	      0.98479900	     -0.22913000	      0.39477200	      0.98938400	     -0.31465600	      0.43972700	      0.44380200	     -0.13332200	      0.62565600	      0.46548800	     -0.38013600	      0.44006700	      0.43388500	     -0.24176600	      0.59255400	      0.45173200	     -0.26973700	      0.14019700	      0.16630700	     -0.17424000	      0.62949800	      0.06745500	     -0.33920000	      0.17159400	      0.15891900	     -0.23693600	      0.65064500	      0.08531900	     -0.27784900	      0.38699400	      1.41191300	     -0.25051500	      0.52072500	      1.33548000	     -0.21061100	      0.51343100	      1.33707600	     -0.31671400	      0.50072100	      1.34402600	     -0.25939900	      0.57967200	      1.18018200	     -0.27916600	      0.49796600	      0.53676900	     -0.05528900	      0.73357200	      0.58738100	     -0.31546600	      0.52255100	      0.60061600	     -0.11838700	      0.65874500	      0.61903200	     -0.36581900	      0.51547400	      0.51378900	     -0.14031400	      0.65674300	      0.53049300	     -0.35933400	      0.23582800	      0.25732000	     -0.08038900	      0.65029100	      0.20387000	     -0.42672600	      0.21285200	      0.23542900	     -0.15591500	      0.63272200	      0.16790900	     -0.35702300	      0.19300500	      0.04114100	     -0.19942100	      0.76768300	      0.04018500	     -0.32458900	      4.87469342	     50.37946991	     -3.24948570	      0.20396552	      0.00000000	     -0.21108583	    -71.26009755	    518.27921914	     20.84207141	      0.66277625	      0.00000000	     -0.29984500	      0.00000000	      0.18455537	      0.00000000	      0.00000000	      1.36051758	      0.00000000	      0.50463188	      0.87227547	     -0.26775014	      0.49074939	      0.86767364	     -0.17890240	      0.51851439	      0.87687737	     -0.35659790	      0.45452607	      0.43883589	     -0.19505551	      0.61099797	      0.46542984	     -0.32157996	      0.15449318	      0.15481648	     -0.20978701	      0.64424217	      0.07034677	     -0.30321097	      0.57442361	      0.94482535	     -0.26313138	      0.57091975	      0.93024218	     -0.14423771	      0.57792747	      0.95940852	     -0.38202506	      0.38860425	      0.98479879	     -0.22912972	      0.39477241	      0.98938394	     -0.31465569	      0.43972704	      0.44380176	     -0.13332206	      0.62565565	      0.46548754	     -0.38013610	      0.44006747	      0.43388531	     -0.24176620	      0.59255397	      0.45173237	     -0.26973730	      0.14019677	      0.16630653	     -0.17423999	      0.62949771	      0.06745467	     -0.33920035	      0.17159352	      0.15891854	     -0.23693633	      0.65064496	      0.08531941	     -0.27784938	      0.38699383	      1.41191256	     -0.25051463	      0.52072489	      1.33548009	     -0.21061058	      0.51343083	      1.33707595	     -0.31671408	      0.50072068	      1.34402621	     -0.25939900	      0.57967162	      1.18018198	     -0.27916601	      0.49796572	      0.53676933	     -0.05528935	      0.73357230	      0.58738112	     -0.31546599	      0.52255094	      0.60061646	     -0.11838709	      0.65874541	      0.61903185	     -0.36581901	      0.51547384	      0.51378882	     -0.14031400	      0.65674293	      0.53049260	     -0.35933408	      0.23582801	      0.25732005	     -0.08038909	      0.65029073	      0.20387016	     -0.42672566	      0.21285157	      0.23542921	     -0.15591507	      0.63272166	      0.16790855	     -0.35702315	      0.19300500	      0.04114069	     -0.19942085	      0.76768279	      0.04018543	     -0.32458878
